<svg width="47" height="46" viewBox="0 0 47 46" fill="none" xmlns="http://www.w3.org/2000/svg">
<path fill-rule="evenodd" clip-rule="evenodd" d="M31.5664 3.28201C32.0111 1.06948 34.1653 -0.363646 36.3779 0.0808403C38.5907 0.525419 40.0246 2.67963 39.5801 4.89236L38.9852 7.85332C38.5535 10.0023 40.1968 12.0086 42.3887 12.0086C44.6456 12.0086 46.4754 13.8376 46.4756 16.0945C46.4756 18.3515 44.6457 20.1814 42.3887 20.1814H39.0673C37.5788 20.1814 36.2968 21.2314 36.0036 22.6908C35.6149 24.6253 37.0942 26.4314 39.0673 26.4314H42.3887C44.6457 26.4314 46.4756 28.2613 46.4756 30.5183C46.4756 32.7753 44.6457 34.6053 42.3887 34.6053H41.6059C36.9559 34.6053 32.9513 37.8852 32.0352 42.4441C31.5906 44.6568 29.4363 46.0907 27.2236 45.6463C25.0109 45.2017 23.577 43.0475 24.0215 40.8347L24.2386 39.7545C24.7738 37.0915 22.7374 34.6053 20.0212 34.6053C17.9722 34.6053 16.2076 36.0505 15.8039 38.0594L14.9082 42.5164C14.4636 44.729 12.3093 46.162 10.0967 45.7176C7.88392 45.273 6.44996 43.1188 6.89453 40.906L7.358 38.5987C7.77285 36.5334 6.19349 34.6053 4.08691 34.6053C1.8299 34.6053 0 32.7753 0 30.5183C1.05658e-05 28.2613 1.82991 26.4314 4.08691 26.4314H7.2432C8.73177 26.4314 10.0137 25.3815 10.307 23.9221C10.6957 21.9876 9.21637 20.1814 7.2432 20.1814H4.08691C1.8299 20.1814 0 18.3515 0 16.0945C0.000155902 13.8376 1.83 12.0086 4.08691 12.0086C9.09625 12.0086 13.4103 8.47527 14.3973 3.56414L14.4395 3.35428C14.884 1.14157 17.0383 -0.292341 19.251 0.152129C21.4636 0.596687 22.8975 2.75103 22.4531 4.96365L22.0723 6.85964C21.5374 9.52254 23.5738 12.0086 26.2899 12.0086C28.3391 12.0086 30.1038 10.5631 30.5074 8.55397L31.5664 3.28201ZM18.8913 22.6908C18.5026 24.6253 19.9819 26.4314 21.955 26.4314H24.3555C25.8441 26.4314 27.126 25.3815 27.4193 23.9221C27.808 21.9876 26.3287 20.1814 24.3555 20.1814H21.955C20.4665 20.1814 19.1845 21.2314 18.8913 22.6908Z" fill="url(#paint0_linear_1_52)"/>
<path fill-rule="evenodd" clip-rule="evenodd" d="M42.3976 12.1091C44.6545 12.1093 46.4835 13.9391 46.4835 16.196C46.4834 18.4528 44.6544 20.2828 42.3976 20.283H39.0753C37.5867 20.283 36.3048 21.3329 36.0115 22.7923C35.6228 24.7268 37.1021 26.533 39.0753 26.533H42.3976C44.6544 26.5331 46.4835 28.363 46.4835 30.6199C46.4833 32.8765 44.6543 34.7056 42.3976 34.7058H41.6148C36.9642 34.7058 32.9592 37.9862 32.0431 42.5456C31.5985 44.7584 29.4443 46.1914 27.2316 45.7468C25.0191 45.3021 23.5859 43.1479 24.0304 40.9353L29.0753 15.8259C29.1454 15.4775 29.2571 15.148 29.4054 14.8425C29.9639 13.2506 31.4802 12.1091 33.2628 12.1091H42.3976Z" fill="url(#paint1_linear_1_52)"/>
<defs>
<linearGradient id="paint0_linear_1_52" x1="23.2378" y1="0" x2="23.2378" y2="45.7984" gradientUnits="userSpaceOnUse">
<stop stop-color="#D6F4EA"/>
<stop offset="1" stop-color="#1B503C"/>
</linearGradient>
<linearGradient id="paint1_linear_1_52" x1="23.3193" y1="0.0555218" x2="23.3193" y2="45.8277" gradientUnits="userSpaceOnUse">
<stop stop-color="#4AC996"/>
<stop offset="1" stop-color="#1B503C"/>
</linearGradient>
</defs>
</svg>
